<svg xmlns="http://www.w3.org/2000/svg" width="13.666" height="13.666" viewBox="0 0 13.666 13.666">
  <g id="copy" transform="translate(-2.25 -2.25)">
    <path id="Path_1281" data-name="Path 1281" d="M18.761,9.976v8.785H9.976V9.976h8.785m0-.976H9.976A.976.976,0,0,0,9,9.976v8.785a.976.976,0,0,0,.976.976h8.785a.976.976,0,0,0,.976-.976V9.976A.976.976,0,0,0,18.761,9Z" transform="translate(-3.822 -3.822)" fill="#fff"/>
    <path id="Path_1282" data-name="Path 1282" d="M3.226,10.059H2.25V3.226a.976.976,0,0,1,.976-.976h6.833v.976H3.226Z" transform="translate(0 0)" fill="#fff"/>
  </g>
</svg>
