<svg xmlns="http://www.w3.org/2000/svg" width="17.395" height="17.888" viewBox="0 0 17.395 17.888">
  <g id="link" transform="translate(-10.585 5.986) rotate(-47)">
    <path id="Path_45" data-name="Path 45" d="M8.933,12.375H5.995a3.745,3.745,0,0,0,0,7.489H9.739a3.745,3.745,0,0,0,3.532-4.993H12.235a1.214,1.214,0,0,0-.312.039,2.5,2.5,0,0,1-2.184,3.706H5.995a2.5,2.5,0,0,1,0-4.993H7.911a5,5,0,0,1,1.024-1.248Z" transform="translate(0 0)" fill="#2ad5fb"/>
    <path id="Path_46" data-name="Path 46" d="M17.243,12.375a3.745,3.745,0,0,0-3.532,4.993h1.371a2.5,2.5,0,0,1,2.161-3.745h3.745a2.5,2.5,0,0,1,0,4.993H19.072a5.018,5.018,0,0,1-1.024,1.248h2.94a3.745,3.745,0,0,0,0-7.489Z" transform="translate(-5.008 0)" fill="#2ad5fb"/>
  </g>
</svg>
