<svg xmlns="http://www.w3.org/2000/svg" width="25.665" height="24.621" viewBox="0 0 25.665 24.621">
  <path id="star" d="M26.683,11.056a2.167,2.167,0,0,0-1.72-1.475l-6.2-1.007L15.892,2.991a2.176,2.176,0,0,0-3.87,0L9.149,8.574l-6.2,1.007a2.176,2.176,0,0,0-1.2,3.68l4.422,4.458-.957,6.205A2.175,2.175,0,0,0,8.352,26.2l5.606-2.828L19.564,26.2a2.176,2.176,0,0,0,3.131-2.274l-.957-6.205,4.422-4.458a2.167,2.167,0,0,0,.524-2.2Zm-1.739,1-5.03,5.071L21,24.185a.464.464,0,0,1-.669.486l-6.376-3.217L7.581,24.671a.464.464,0,0,1-.669-.486L8,17.127l-5.03-5.071a.465.465,0,0,1,.256-.786l7.049-1.146,3.268-6.35a.465.465,0,0,1,.827,0l3.268,6.35,7.049,1.146a.465.465,0,0,1,.256.786Z" transform="translate(-1.126 -1.811)" fill="#dd8911"/>
</svg>
